<svg id="smile" xmlns="http://www.w3.org/2000/svg" viewBox="0 0 1332 918"><defs><style>.cls-1{fill:#dce3f9;}.cls-2{fill:#dd9d57;}.cls-3{fill:#ffb961;}.cls-4{fill:#c05c7e;}.cls-5{fill:#a0506f;}.cls-6{fill:#2d3561;}.cls-7{fill:#fff;}.cls-8{fill:#f3826f;}.cls-9{fill:#d87264;}</style></defs><title>coming-soon1</title><path class="cls-1" d="M135.86,507.83C374.85,250.6,536,208.15,641.14,221c55,6.73,110.94,30.56,222.32,28.87,132.22-2,185.44-37.62,238.68,0,65.24,46.09,61.57,153.42,60.63,180.94-2.73,79.93-39.13,143.17-68.33,178C1006.3,714.13,866.85,598.76,653.65,682c-97.35,38-81.63,63.89-175.16,95.28-154.08,51.7-373.94,41-415.77-61.6C34.52,646.58,95.76,556.64,135.86,507.83Z"/><path class="cls-1" d="M836.39,111.82c19.09-67.61,156.41-104.95,229.82-61,33.82,20.26,30,43.35,75,67.22,50.25,26.62,90.9,16.93,100.06,40.65,6.79,17.61-8.06,42.47-23.45,54.72-43.71,34.79-102.41-54.12-204.81-50-76.51,3.06-110.87,52.8-148.52,29.71C839.56,177.8,828.47,139.86,836.39,111.82Z"/><polygon class="cls-2" points="595.9 618.51 595.9 628.13 722.75 655.25 725.83 647.38 695.03 628.13 595.9 618.51"/><polyline class="cls-2" points="722.75 655.25 735.96 638.24 731.61 633.91 722.75 645.45 722.75 655.25"/><polygon class="cls-3" points="595.9 618.51 725.83 647.38 759.52 600.22 661.35 578.09 595.9 618.51"/><path class="cls-4" d="M852.87,599.26s-52.93,1-77,0c-7.33-.29-14.88-3.94-21.84-6-8.4-2.5-16.86-4.79-25.31-7.09a13.78,13.78,0,0,0-4.16-.68c-3.82.17-30.28,15.83-29.54,19.56l3.85,19.25,13.48,11.55,24.54,2.41,17.32-2.89,79.88,2.89Z"/><path class="cls-4" d="M776.84,732.07l-8.66-27.91s-1-27.9-13.48-53.89c-2.33-4.84-9-2.7-12.69-1-3,1.44-3.27,2.1-6.21,1.54-4.41-.84-7.41-1.29-10.71,2.32a12.68,12.68,0,0,1-5,3.51c-1,.34-2.39-1.73-3.85-1.59-5.28.52-9.9,9.85-5.38,11.48-2.56.74-5,.38-7.42,1.79-4.31,2.46-4.74,7.33-3.56,11.75,3.84,14.44,6.73,36.58,21.17,41.39l15.4,43.31Z"/><path class="cls-5" d="M713.32,617.55s3.8-8.93,10.59-13.48c4-2.65,8.83-2,13.27-2-.51-2.2-2.12-4.53-3.15-6.59a2.61,2.61,0,0,0-.39-.64c-1.24-1.39-7.68-1.47-9.59-1.44,0,0-9.77.13-13.62,14.56C710.43,607.92,705.62,610.81,713.32,617.55Z"/><path class="cls-5" d="M738.34,619.47s-2.89-3.85-7.7,3.85c0,0,1.93,6.74,9.63,4.81,0,0,1.92-1,1.92-6.73Z"/><path class="cls-5" d="M745.08,654.12s7.7,6.73,9.62,4.81-4.81-7.7-4.81-7.7Z"/><path class="cls-5" d="M728.72,655.08s8.66,0,7.7-1.92-4.81-2.89-9.63,0S728.72,655.08,728.72,655.08Z"/><path class="cls-5" d="M703.69,673.37s14.44,24.06,14.44,32.72v10.59S698.88,699.35,703.69,673.37Z"/><polygon class="cls-6" points="721.02 538.63 715.24 627.17 718.13 637.76 722.94 627.17 725.83 538.63 721.02 538.63"/><path class="cls-4" d="M737.38,602.15s-13.47-1.93-16.36,8.66c0,0-9.63,5.16-5.78,12.68s13.48-.17,13.48-.17,1.92-3.85,8.66-5.77c0,0,3.85,0,10.59,7.7l9.62,1.92Z"/><path class="cls-4" d="M292.74,562.69s-51,112.6-35.61,132.81,213.66,61.6,213.66,61.6,14.92.48,23.58-10.11,30.79-54.86,30.79-54.86,5.78-5.77-12.51-11.55L431.81,669,402,657.49l-58.7-88.55-32.73-10.58Z"/><path class="cls-5" d="M322.57,578.09l-22.13,7.7-24.06,91.43s21.66,26.56,60.87,23.39S322.57,578.09,322.57,578.09Z"/><polygon class="cls-6" points="276.38 193.12 307.82 574.24 323.54 764.8 543.93 542.48 535.27 243.16 276.38 193.12"/><polygon class="cls-7" points="304.29 221.99 338.94 725.03 535.27 529 525.65 257.6 304.29 221.99"/><path class="cls-8" d="M878.86,542.48s-10,8.13-22.14,35.61c-21.29,48-52.77,130.3-74.11,154.95l-7.7-6.74s-31.76-14.44-44.27,41.38c0,0,17.33,47.16,59.67,75.07,0,0,29.84,4.82,49.09-19.25L850,851.42h174.2s34.65-103.95,27.91-171.32c0,0,1.93-97.2-83.73-194.41l-27-3.85-50,30.8Z"/><polygon class="cls-9" points="781.65 768.65 776.84 801.37 797.05 832.17 804.75 821.58 781.65 768.65"/><path class="cls-9" d="M898.1,680.1s22.14,16.36,22.14,36.58C920.24,716.68,930.83,684.92,898.1,680.1Z"/><path class="cls-9" d="M804.75,800.41c0,2.88,13.47,18.28,28.87,21.17Z"/><path class="cls-9" d="M925.05,759l-44.27,20.21S886.56,768.65,900,759Z"/><path class="cls-9" d="M940.45,768.65l-52.93,46.19,42.34-18.28s15.4,22.13-4.81,39.46C925.05,836,961.62,828.32,940.45,768.65Z"/><path class="cls-9" d="M1037.66,695.5S995.31,759,991.46,796.56L971.25,836S1034.77,754.21,1037.66,695.5Z"/><path class="cls-4" d="M803.79,340.37s-11.55,34.64-6.74,54.86,2.89,9.62,2.89,9.62c1.34,7.41-.43,14.84-3.23,21.69-1.52,3.72-10.09,14.86-7.9,18.48.91,1.5,2.53,2.39,3.91,3.48A13.73,13.73,0,0,1,798,458.59c.07,1.86-.28,3.73-.12,5.59a20.68,20.68,0,0,0,2,6.38l10.43,24.31c5,11.56,12.51,14.31,24.7,13A76.38,76.38,0,0,0,854.8,503l24.06,39.46s59.67-60.64,77.95-53.9c0,0-8.66-17.32-1.92-31.76l-7.7-22.14,21.17-36.57-35.61-40.42-72.18-21.17Z"/><path class="cls-3" d="M803.31,340.85s-14.44-58.71,127-52c0,0,92.39,16.36,25,168.42l-7.7-22.13s25-52-17.32-42.35c0,0-10.14,14.66-47.16-3.85C879.34,387,822.55,337,803.31,340.85Z"/><polygon class="cls-8" points="797.05 394.26 799.94 401 795.13 401 797.05 394.26"/><path class="cls-8" d="M803.79,397.15s14.47-13.14,36.59-.31l-8.94,1.41s-24.08-4.47-27.07,2.75Z"/><path class="cls-6" d="M829.29,398.59s-20.21-6.73-28.87,6.74c0,0-2.89-5.77-17.32-3.85-.88.12-.38,3-.08,4.26a50,50,0,0,0,2.86,11.69l.45,1.35c.77,2.33,1.62,4.76,2.6,7.43l.11.31c2,5.71,2.3,5.8,2.62,5.89l.26.07.2-.15a1.89,1.89,0,0,0,.49-.63,54.25,54.25,0,0,0,4.94-12.35,23.26,23.26,0,0,0,.52-3.39,19.11,19.11,0,0,0-.32-5.44c1.58-2.06,4,3.82,4.49,5.2,1.89,5.82,4.77,12.31,9.54,16.38a11.06,11.06,0,0,0,6.91,2.89c6.75.11,10.07-4.94,10.95-11.07a46.26,46.26,0,0,0,.18-9.63c-.1-1.69-.82-4.21-.49-6.07a2.64,2.64,0,0,1,1.59-2.14c5.44-2.26,11.84-2.57,17.68-3,3.53-.24,7.06-.39,10.59-.49,2.16-.06,4.33-.11,6.49-.13,1.47,0,5.76.72,6.92-.05,0,0,20.21-12.51,52-5.77,1.88.4,5.78-3.85,5.78-3.85S936.12,381.27,829.29,398.59Zm-32.18,17.29a21.19,21.19,0,0,1-.5,3.25,52.93,52.93,0,0,1-4.78,12c-.28-.61-.83-1.95-1.88-4.91l-.12-.32c-1-2.67-1.82-5.09-2.58-7.4l-.45-1.36A49.58,49.58,0,0,1,784,405.76a31.51,31.51,0,0,1,6.37-1,7.13,7.13,0,0,1,3.46,1.29,8.65,8.65,0,0,1,3,4.85,16.51,16.51,0,0,1,.27,2,5.48,5.48,0,0,0,0,.7A22.25,22.25,0,0,1,797.11,415.88Zm21.28,17.27c-5.85.55-9.37-6.83-11.27-11.22-2.7-6.27-7.06-16.54,2-19.95a20.64,20.64,0,0,1,10.09-.28c7.18,2.07,7.18,15.41,7.18,20.95C826.4,427.94,824.33,432.59,818.39,433.15Z"/><path class="cls-6" d="M815.34,473.18s18.28,4.81,29.83-7.7"/><path class="cls-5" d="M924.09,417.36s-1.92-17.32,16.36-20.21c0,0,17.33,6.74-1.92,37.53l-2.41-5.29s-17.32,9.63-19.25,5.78S924.09,417.36,924.09,417.36Z"/></svg>